#!OML:ASF H:\GeneralSubjects\Female5\Project 1\Capture day 1\Session 1\Female5.ASF
:FULLY-SPECIFIED
:DEGREES
372
root -29.3392 15.8446 5.00904 -163.362 44.2725 -182.62
lowerback 11.5735 2.07938 6.96769
upperback -7.60628 4.31966 -0.0459651
thorax -14.5501 1.39712 -5.00755
lowerneck -14.8043 0.0481026 3.0334
upperneck 38.931 5.71084 -7.52715
head 16.9695 2.89003 -2.53506
rclavicle 8.3092e-014 1.98785e-014
rhumerus -39.5028 -10.5975 -45.0137
rradius 86.8301
rwrist 10.6883
rhand -41.879 -14.3883
rfingers 7.12502
rthumb -14.7786 -43.8414
lclavicle 8.3092e-014 1.98785e-014
lhumerus -29.6329 17.9101 38.1453
lradius 79.5183
lwrist 4.71393
lhand -45.4845 47.0019
lfingers 7.12502
lthumb -18.2498 -283.834
rfemur -25.9633 7.48437 21.1509
rtibia 11.5093
rfoot -23.6519 -20.1563
rtoes 7.91941
lfemur -40.4865 8.11068 -33.6507
ltibia 41.8824
lfoot -11.251 6.35452
ltoes -72.2544
373
root -29.4091 15.834 5.06021 -163.14 44.0608 -182.522
lowerback 11.6201 2.00833 7.0655
upperback -7.63395 4.27036 0.089815
thorax -14.6264 1.37078 -4.90388
lowerneck -15.0279 -0.09303 2.8729
upperneck 39.0453 5.55377 -7.53652
head 17.0722 2.7932 -2.54259
rclavicle 8.55768e-014 -2.54444e-014
rhumerus -39.5422 -10.5954 -44.3446
rradius 86.5459
rwrist 10.7594
rhand -41.6034 -15.0907
rfingers 7.12502
rthumb -14.513 -44.5631
lclavicle 8.55768e-014 -2.54444e-014
lhumerus -28.141 17.6383 38.3838
lradius 79.775
lwrist 4.46827
lhand -45.6489 48.0494
lfingers 7.12502
lthumb -18.4079 -282.802
rfemur -26.2947 7.81535 20.9646
rtibia 11.1284
rfoot -23.5875 -20.8076
rtoes 8.03756
lfemur -41.2545 6.8234 -31.8932
ltibia 44.756
lfoot -12.7554 6.64567
ltoes -72.4678
374
root -29.4839 15.8247 5.10299 -163.058 43.9833 -182.422
lowerback 11.623 1.87675 6.90131
upperback -7.57677 4.10377 0.412004
thorax -14.6157 1.33469 -4.41168
lowerneck -15.3065 -0.113411 2.78187
upperneck 39.0912 5.65912 -7.81799
head 17.194 2.77348 -2.63725
rclavicle 1.31198e-014 4.77083e-014
rhumerus -39.1617 -10.3188 -43.9732
rradius 86.2528
rwrist 10.6952
rhand -41.4133 -15.4042
rfingers 7.12502
rthumb -14.3299 -44.8897
lclavicle 1.31198e-014 4.77083e-014
lhumerus -27.1795 17.7589 38.8074
lradius 79.9172
lwrist 4.14156
lhand -45.6656 47.8598
lfingers 7.12502
lthumb -18.4241 -282.993
rfemur -26.5633 8.07269 20.7971
rtibia 10.9015
rfoot -23.3468 -21.2901
rtoes 8.44002
lfemur -41.3648 5.42539 -29.9866
ltibia 47.2352
lfoot -14.3185 6.92648
ltoes -72.1977
375
root -29.5648 15.8213 5.13488 -163.261 44.1087 -182.54
lowerback 11.6044 1.78876 6.60731
upperback -7.47855 3.94873 0.632874
thorax -14.5355 1.31165 -3.9605
lowerneck -15.5657 -0.160574 2.89509
upperneck 39.1189 5.72567 -8.27847
head 17.3128 2.74625 -2.85969
rclavicle 1.2424e-013 -2.38542e-014
rhumerus -38.9854 -10.0099 -43.8703
rradius 86.1505
rwrist 10.5486
rhand -41.3221 -15.3792
rfingers 7.12502
rthumb -14.242 -44.8709
lclavicle 1.2424e-013 -2.38542e-014
lhumerus -26.2977 17.8617 39.3488
lradius 79.7541
lwrist 3.69082
lhand -45.7184 47.8205
lfingers 7.12502
lthumb -18.4748 -283.037
rfemur -26.7564 8.20287 20.4577
rtibia 10.7886
rfoot -22.9452 -21.6043
rtoes 9.08666
lfemur -40.7505 4.08624 -28.2207
ltibia 49.193
lfoot -15.408 7.17065
ltoes -71.8585
376
root -29.6513 15.8215 5.15328 -163.732 44.4414 -182.852
lowerback 11.6923 1.82754 6.57253
upperback -7.45787 3.97091 0.466121
thorax -14.5516 1.31005 -4.13653
lowerneck -15.6958 -0.332122 3.1581
upperneck 39.3044 5.46355 -8.44583
head 17.4386 2.65836 -3.04277
rclavicle -9.74045e-015 3.02153e-014
rhumerus -39.4148 -9.99873 -44.1654
rradius 86.0629
rwrist 10.5047
rhand -41.3296 -14.9709
rfingers 7.12502
rthumb -14.2492 -44.462
lclavicle -9.74045e-015 3.02153e-014
lhumerus -25.1982 17.3279 39.9149
lradius 79.3211
lwrist 3.18161
lhand -45.6297 48.017
lfingers 7.12502
lthumb -18.3895 -282.832
rfemur -26.7779 8.655 19.8541
rtibia 10.6058
rfoot -23.0364 -21.953
rtoes 9.1996
lfemur -39.4989 2.95842 -26.7427
ltibia 50.4574
lfoot -15.9955 7.33021
ltoes -72.1839
377
root -29.7433 15.8241 5.16013 -164.196 44.8965 -183.084
lowerback 11.7225 1.82642 6.45226
upperback -7.42604 3.94014 0.445217
thorax -14.5398 1.30531 -4.08603
lowerneck -15.8672 -0.334808 3.15667
upperneck 39.5672 5.47742 -8.36988
head 17.631 2.67607 -3.01461
rclavicle -2.14687e-014 -3.18055e-014
rhumerus -39.3775 -9.75813 -44.7445
rradius 85.696
rwrist 10.6161
rhand -41.4199 -14.9613
rfingers 7.12502
rthumb -14.3362 -44.4463
lclavicle -2.14687e-014 -3.18055e-014
lhumerus -24.7104 16.8197 40.5435
lradius 78.8822
lwrist 2.71795
lhand -45.6708 47.8585
lfingers 7.12502
lthumb -18.429 -282.994
rfemur -26.7376 9.24063 19.2891
rtibia 10.3693
rfoot -22.9905 -22.2536
rtoes 9.59629
lfemur -37.7656 1.84514 -25.3416
ltibia 51.2368
lfoot -16.3489 7.25987
ltoes -72.6755
378
root -29.8365 15.8286 5.16153 -164.85 45.5038 -183.478
lowerback 11.7152 1.82221 6.10662
upperback -7.38759 3.86274 0.448434
thorax -14.5139 1.30348 -3.86945
lowerneck -16.0044 -0.227303 2.93066
upperneck 39.8535 5.63164 -8.01691
head 17.8244 2.7527 -2.78781
rclavicle 5.96354e-015 3.81667e-014
rhumerus -39.1982 -9.40032 -45.511
rradius 85.2747
rwrist 10.7926
rhand -41.3273 -15.1737
rfingers 7.12502
rthumb -14.247 -44.665
lclavicle 5.96354e-015 3.81667e-014
lhumerus -24.6464 16.4318 41.247
lradius 78.3634
lwrist 2.1982
lhand -45.8577 47.5413
lfingers 7.12502
lthumb -18.6088 -283.329
rfemur -26.6684 9.57832 18.6573
rtibia 10.1576
rfoot -21.9205 -22.444
rtoes 11.6493
lfemur -35.3988 0.673341 -24.2213
ltibia 51.5613
lfoot -16.4921 7.11601
ltoes -72.9686
379
root -29.928 15.8341 5.16107 -165.696 46.2378 -184.032
lowerback 11.7182 1.8231 5.55493
upperback -7.34932 3.75066 0.428152
thorax -14.5059 1.30264 -3.55642
lowerneck -16.1454 -0.100749 2.7743
upperneck 40.0772 5.82022 -7.7804
head 17.995 2.83431 -2.61846
rclavicle -7.95139e-015 4.13472e-014
rhumerus -39.1546 -8.96976 -46.4412
rradius 84.9667
rwrist 11.0142
rhand -41.0099 -14.94
rfingers 7.12502
rthumb -13.9412 -44.4526
lclavicle -7.95139e-015 4.13472e-014
lhumerus -24.8695 16.193 42.0116
lradius 77.6784
lwrist 1.48147
lhand -45.852 47.4255
lfingers 7.12502
lthumb -18.6033 -283.444
rfemur -26.5113 10.1332 17.8737
rtibia 9.8942
rfoot -21.1576 -22.7925
rtoes 12.8514
lfemur -32.6809 -0.469487 -23.3877
ltibia 51.5937
lfoot -16.2184 6.9762
ltoes -73.2062
380
root -30.0252 15.8395 5.15444 -166.366 46.9661 -184.415
lowerback 11.626 1.94114 5.30067
upperback -7.37262 3.83236 0.248527
thorax -14.4663 1.35428 -3.62852
lowerneck -16.3056 -0.183065 3.07583
upperneck 40.2839 5.67778 -7.93942
head 18.1627 2.80417 -2.7846
rclavicle 9.16397e-014 4.77083e-015
rhumerus -39.6241 -8.89953 -47.4414
rradius 84.659
rwrist 11.5037
rhand -40.8358 -14.702
rfingers 7.12502
rthumb -13.7734 -44.2261
lclavicle 9.16397e-014 4.77083e-015
lhumerus -24.8161 15.6077 42.9608
lradius 76.7039
lwrist 0.781978
lhand -45.7209 47.4913
lfingers 7.12502
lthumb -18.4772 -283.366
rfemur -26.3288 11.2429 17.0895
rtibia 9.45679
rfoot -21.5849 -23.5764
rtoes 10.9806
lfemur -29.9716 -1.62441 -22.643
ltibia 51.3974
lfoot -15.6488 7.37377
ltoes -73.7044
381
root -30.1319 15.8428 5.14039 -166.881 47.6789 -184.673
lowerback 11.4724 2.01096 5.21193
upperback -7.44388 3.88872 0.109943
thorax -14.4434 1.38163 -3.73987
lowerneck -16.4418 -0.258322 3.35933
upperneck 40.4275 5.53922 -8.12558
head 18.2884 2.76645 -2.95995
rclavicle 1.6201e-014 1.27222e-014
rhumerus -40.001 -8.83239 -48.5427
rradius 84.3015
rwrist 12.1566
rhand -40.9855 -14.5289
rfingers 7.12502
rthumb -13.9177 -44.0431
lclavicle 1.6201e-014 1.27222e-014
lhumerus -25.0906 15.1969 43.8629
lradius 75.5956
lwrist 0.13975
lhand -45.7277 47.7541
lfingers 7.12502
lthumb -18.4837 -283.104
rfemur -26.24 12.2495 16.3717
rtibia 9.03622
rfoot -21.8823 -24.1162
rtoes 10.3783
lfemur -26.9941 -2.83173 -22.102
ltibia 50.0725
lfoot -13.9795 5.43351
ltoes -73.6853
